<svg width="70" height="69" fill="none" xmlns="http://www.w3.org/2000/svg">
  <g clip-path="url(#clip0_1_3)">
    <path d="M44.6678 38.1267L43.0037 39.0875L33.4623 16.7749C33.2058 16.175 32.5465 15.5646 31.9286 15.3549L23.5558 12.5135C23.1812 12.3864 22.7769 12.4229 22.4466 12.6136C22.1163 12.8043 21.8827 13.1361 21.8055 13.5241L20.0796 22.1958C19.9523 22.8358 20.1514 23.712 20.5426 24.234L35.0951 43.6534L33.431 44.6141C32.6298 45.0767 32.3543 46.1049 32.8169 46.9061L33.8608 48.7142C34.3234 49.5154 35.3516 49.7909 36.1528 49.3283L39.688 47.2873L41.5105 50.4439C40.9389 51.6565 40.9492 53.1203 41.6688 54.3667C42.8349 56.3864 45.4267 57.0809 47.4465 55.9148C49.4662 54.7487 50.1607 52.1569 48.9946 50.1371C48.275 48.8908 47.0125 48.15 45.6765 48.0387L43.854 44.882L47.3893 42.8409C48.1905 42.3784 48.466 41.3502 48.0034 40.549L46.9595 38.7409C46.4971 37.9396 45.469 37.6642 44.6678 38.1267V38.1267Z"
          fill="black"/>
  </g>
  <defs>
    <clipPath id="clip0_1_3">
      <rect width="50" height="50" fill="white"
            transform="translate(0.796021 25.1135) rotate(-30)"/>
    </clipPath>
  </defs>
</svg>
